<?xml version="1.0" encoding="UTF-8" standalone="no"?>
<!-- Created with Inkscape (http://www.inkscape.org/) -->

<svg
   xmlns:dc="http://purl.org/dc/elements/1.1/"
   xmlns:cc="http://creativecommons.org/ns#"
   xmlns:rdf="http://www.w3.org/1999/02/22-rdf-syntax-ns#"
   xmlns:svg="http://www.w3.org/2000/svg"
   xmlns="http://www.w3.org/2000/svg"
   xmlns:xlink="http://www.w3.org/1999/xlink"
   xmlns:sodipodi="http://sodipodi.sourceforge.net/DTD/sodipodi-0.dtd"
   xmlns:inkscape="http://www.inkscape.org/namespaces/inkscape"
   width="210mm"
   height="297mm"
   viewBox="0 0 210 297"
   version="1.1"
   id="svg8"
   sodipodi:docname="c5.svg"
   inkscape:version="0.92.5 (2060ec1f9f, 2020-04-08)">
  <defs
     id="defs2">
    <linearGradient
       inkscape:collect="always"
       id="linearGradient4848">
      <stop
         style="stop-color:#e98f8f;stop-opacity:1"
         offset="0"
         id="stop4844" />
      <stop
         style="stop-color:#c1f7ba;stop-opacity:0.88705879"
         offset="1"
         id="stop4846" />
    </linearGradient>
    <linearGradient
       inkscape:collect="always"
       xlink:href="#linearGradient4848"
       id="linearGradient4850"
       x1="53.931717"
       y1="48.839684"
       x2="81.028702"
       y2="61.357288"
       gradientUnits="userSpaceOnUse" />
  </defs>
  <sodipodi:namedview
     id="base"
     pagecolor="#ffffff"
     bordercolor="#666666"
     borderopacity="1.0"
     inkscape:pageopacity="0.0"
     inkscape:pageshadow="2"
     inkscape:zoom="0.43681641"
     inkscape:cx="-79.335649"
     inkscape:cy="701.45389"
     inkscape:document-units="mm"
     inkscape:current-layer="layer1"
     showgrid="false"
     objecttolerance="1"
     gridtolerance="1"
     guidetolerance="1"
     inkscape:window-width="2560"
     inkscape:window-height="1416"
     inkscape:window-x="0"
     inkscape:window-y="0"
     inkscape:window-maximized="1" />
  <metadata
     id="metadata5">
    <rdf:RDF>
      <cc:Work
         rdf:about="">
        <dc:format>image/svg+xml</dc:format>
        <dc:type
           rdf:resource="http://purl.org/dc/dcmitype/StillImage" />
        <dc:title></dc:title>
      </cc:Work>
    </rdf:RDF>
  </metadata>
  <g
     inkscape:label="Layer 1"
     inkscape:groupmode="layer"
     id="layer1">
    <path
       style="fill:url(#linearGradient4850);fill-opacity:1;fill-rule:evenodd;stroke:#000000;stroke-width:0.26458332px;stroke-linecap:butt;stroke-linejoin:miter;stroke-opacity:1"
       d="m 59.472985,42.488932 c 2.023371,0.103346 3.823234,0.21446 6.004292,0.964269 1.382298,0.473589 2.521129,1.805 3.979898,2.742814 1.636597,0.134461 3.043793,-0.272903 4.696028,-0.352175 1.505157,0.188283 3.123083,0.0812 4.455716,0.912087 2.118408,0.513658 3.588412,1.758242 5.249917,2.945824 1.489211,0.91395 1.531514,3.55448 1.48404,5.237313 0.146792,1.739631 0.795439,3.601227 0.08099,5.275695 -0.876067,1.633571 -1.609537,3.589055 -3.495392,4.310155 -1.657122,0.456754 -3.264954,1.092979 -4.88246,1.587882 -2.672741,0.168711 -5.35585,0.0026 -8.030918,0.152502 -1.428758,-0.132588 -2.859728,3.86e-4 -4.264675,0.224067 -2.473931,0.04223 -4.948596,0.04917 -7.414077,0.277521 -1.856144,-0.05932 -4.13082,0.147866 -5.321109,-1.601552 -1.394544,-1.048067 -1.509657,-2.94511 -2.611316,-4.209605 -1.583493,-2.051246 -1.49741,-4.75122 -1.407092,-7.211558 -0.04756,-2.084377 0.0386,-4.171875 0.0056,-6.257913 1.024402,-1.380295 2.974029,-1.603085 4.046106,-2.983005 1.202027,-1.392614 3.04468,-2.280596 4.717447,-2.377883 0.908415,-0.05006 2.812288,0.236244 3.617168,-0.06474 z"
       id="path4842"
       inkscape:connector-curvature="0"
       sodipodi:nodetypes="ccccccccccccccccccccc" />
    <path
       style="font-style:normal;font-variant:normal;font-weight:normal;font-stretch:normal;font-size:50.79999924px;line-height:125%;font-family:'Noto Kufi Arabic';-inkscape-font-specification:'Noto Kufi Arabic, Normal';font-variant-ligatures:normal;font-variant-caps:normal;font-variant-numeric:normal;font-feature-settings:normal;text-align:center;letter-spacing:0px;word-spacing:0px;writing-mode:lr-tb;text-anchor:middle;fill:#000000;fill-opacity:1;stroke:none;stroke-width:0.26458332px;stroke-linecap:butt;stroke-linejoin:miter;stroke-opacity:1"
       d="m 84.246094,31.914062 c -5.555571,0.278733 -11.176222,0.03116 -16.75586,0.115235 0.04357,3.455137 0.04116,8.284269 0.07513,11.451957 0,0 -1.825795,-1.384643 -5.329038,-2.211723 -6.177378,-1.538908 -13.94775,1.151082 -15.716797,7.740235 -2.188562,6.721353 -0.179477,15.896079 7.216797,18.291015 4.135746,1.408133 8.626395,0.430911 12.623047,-0.833984 6.562577,1.764088 15.630401,2.475086 19.826172,-3.994141 3.800861,-6.186304 0.897238,-16.047047 -6.730469,-17.427734 -3.132433,-0.810777 -6.510388,-0.549512 -9.492187,0.703125 V 34.128906 c 4.986137,-0.09005 10.326673,0.179542 15.09375,-0.132812 -0.05959,-0.63278 0.418781,-2.450321 -0.810547,-2.082032 z M 58.841797,42.667969 c 3.012907,0.104747 6.607512,0.787426 8.685547,2.847656 0.838963,1.022597 1.525007,2.294444 1.287557,1.964734 5.47694,-2.082647 13.043658,-1.291635 15.437052,5.015735 2.246299,5.293145 -1.14588,12.169081 -7.060547,12.820312 -3.401604,0.853527 -7.628146,-0.678674 -10.801803,-1.102475 -0.910465,0.516658 -0.651049,0.426213 -1.920853,0.973569 -5.279788,2.28913 -12.895307,1.009425 -15.027344,-4.972656 -2.205268,-5.821973 -1.181621,-14.332275 5.332032,-16.888672 1.288757,-0.52548 2.68989,-0.642429 4.068359,-0.658203 z"
       id="path4791"
       inkscape:connector-curvature="0"
       sodipodi:nodetypes="ccccccccccccccccccccccc" />
  </g>
</svg>
